<?xml version="1.0" encoding="UTF-8"?>
<svg id="Layer_1" data-name="Layer 1" xmlns="http://www.w3.org/2000/svg" viewBox="0 0 612 516.31">
  <defs>
    <style>
      .cls-1 {
        fill: #00a79d;
        stroke-width: 0px;
      }
    </style>
  </defs>
  <path class="cls-1" d="m105.81,484.88c40.22-120.58,122.23-194.78,209.25-189.43,80.79,4.96,154.03,77.76,191.12,189.43H105.81Z"/>
  <path class="cls-1" d="m0,487.76c61.48-70.82,186.83-114.4,319.86-111.26,123.49,2.92,235.45,45.67,292.14,111.26-84.17,15.85-187.83,28.59-306.53,28.55-118.24-.04-221.53-12.75-305.47-28.55Z"/>
  <path class="cls-1" d="m221.07,271.82c-19.64-3.42-38.88-1.83-57.83,4.86,1.07-2.85,2.3-5.47,3.69-8.01,5.54-10.13,13.24-18.26,22.88-24.61-.09-.08-.12-.12-.15-.14-.1-.05-.21-.1-.31-.14-.88-.32-1.79-.39-2.72-.34-1.75.09-3.39.61-4.98,1.32-1.46.65-2.82,1.47-4.13,2.37-.13.09-.35.29-.4.21-.27-.42-.4,0-.51.08-1.2.97-2.45,1.88-3.75,2.7-.14.09-.28.21-.54.22.99-1.8,2.43-2.9,4.36-3.31.34-.07.51-.18.62-.51,1.73-5.18,4.1-10.06,6.93-14.71,2.65-4.35,5.71-8.37,9.42-11.88,1.72-1.62,3.57-3.07,5.52-4.41-.71.33-1.37.74-2.02,1.17-11.05,7.08-20.4,15.97-28.23,26.48-1.03,1.38-2.01,2.81-3.01,4.22-.04-.04-.09-.09-.14-.13.82-2.52,1.79-4.98,2.98-7.35.48-.95.99-1.87,1.74-2.65.14-.14.19-.29.18-.49-.1-1.34-.68-2.37-1.87-3.03-.51-.28-1.06-.43-1.63-.54-1.13-.22-2.25-.06-3.37-.02-.41.02-.57.16-.7.49-.58,1.47-1.4,2.8-2.44,3.99-.27.31-.54.63-.96.94.11-.33.18-.56.27-.78.7-1.75,1.71-3.31,3.03-4.66.2-.2.34-.39.28-.72-.62-3.38-1.46-6.7-2.68-9.91-.06-.16-.07-.37-.32-.46-.25.34-.52.68-.76,1.04-.65.95-1.28,1.91-1.95,2.85-.68.95-1.44,1.83-2.43,2.49-.08-.14,0-.23.06-.33.7-1.11,1.39-2.22,2.12-3.32.72-1.08,1.55-2.06,2.69-2.73.29-.17.3-.35.17-.62-.25-.52-.46-1.05-.72-1.57-.9-1.85-1.96-3.6-3.42-5.08-1.28-1.29-2.76-2.22-4.58-2.52-.09-.02-.18-.03-.23-.12h-1.38c-.03.22-.23.31-.37.46-4.42,4.66-8.14,9.82-10.9,15.64-2.35,4.95-3.81,10.12-3.71,15.65,0,.06-.01.09-.08.09-.02,0-.05,0-.06-.01-.06-.07-.11-.14-.16-.22-.78-1.28-1.9-2.11-3.31-2.57-1.27-.41-2.59-.44-3.9-.3-1.89.2-3.69.77-5.44,1.5-.15.06-.31.09-.42.27,3.53,4.82,7.06,9.65,10.6,14.48,0,0,0,.04-.02.06-.06.08-.06-.06-.03.13-6.2-6.22-13-11.55-20.44-16.05-7.45-4.51-15.3-8.14-23.71-10.7.11.27.3.27.44.32,3.19,1.19,6.17,2.79,8.97,4.71,7.35,5.04,13.36,11.41,18.39,18.73.22.32.47.62.59,1.01-.04.04-.08.09-.11.13-.33-.11-.66-.21-.98-.32-2.38-.78-4.79-1.33-7.31-1.23-1.4.06-2.74.33-3.97,1.04-.24.14-.51.27-.65.53.05.06.06.08.08.09.17.07.34.14.51.2,9.76,3.35,18.37,8.56,25.78,15.75,1.22,1.19,2.42,2.4,3.5,3.72-.04.03-.07.07-.1.1-.16-.04-.31-.06-.47-.12-10.03-3.4-20.33-5.35-30.91-5.84-6.15-.29-12.3-.07-18.42.64-4.67.54-9.29,1.36-13.86,2.47-5.47,1.33-10.82,3.01-16,5.21-.13.06-.25.11-.38.16-.12.06-.27.08-.31.23.03,0,.05,0,.07,0,5.13-1.93,10.47-2.87,15.91-3.23,5.07-.34,10.13-.19,15.18.29,3.44.33,6.86.81,10.26,1.42,4.83.86,9.61,1.96,14.3,3.37.58.18,1.17.33,1.73.6-.11.24-.32.24-.47.33-.55.29-1.12.54-1.66.85-1.21.69-2.31,1.53-3.15,2.65-1.17,1.56-1.62,3.29-1.15,5.21.21.83.21.82.97.44,6.17-3.15,12.72-4.8,19.63-5.08,4.75-.19,9.43.32,14.05,1.39.22.05.49.05.68.24-.07.06-.09.11-.13.12-.26.1-.52.19-.78.29-6.77,2.45-13.33,5.35-19.58,8.93-5.94,3.41-11.48,7.35-16.34,12.2-2.4,2.4-4.59,4.98-6.39,7.87-.08.14-.21.26-.22.54,1.3-1.83,2.76-3.35,4.42-4.69,5.25-4.2,11.24-6.99,17.57-9.1.15-.05.31-.12.49.03-.62,1.38-1,2.82-.55,4.34.45,1.53,1.43,2.61,2.82,3.42.09-.18.14-.28.18-.39.78-1.99,1.91-3.78,3.27-5.42,2.03-2.45,4.44-4.48,7.05-6.27,3.83-2.63,7.98-4.69,12.27-6.45,1.62-.66,3.26-1.27,4.91-1.84.21-.07.43-.23.65-.06.3.23.68.37.9.71-.59.08-1.19.13-1.77.26-2.28.54-4.15,1.65-5.19,3.85-.83,1.77-.98,3.63-.55,5.53.26,1.15.88,2.07,1.87,2.72.35.23.76.36,1.19.55-.62.41-1.19.8-1.66,1.32-1.28,1.41-1.78,3.09-1.75,4.95.03,2.02,1.04,3.38,2.89,4.13.32.13.65.23.98.33.63.19.64.18.63.82,0,.32,0,.64-.01.97-.09,4.21-.11,8.43-.21,12.64-.19,7.88-.18,15.76-.37,23.63-.18,7.88-.18,15.76-.37,23.63-.18,7.85-.18,15.71-.36,23.56s-.18,15.71-.36,23.56c-.19,7.9-.18,15.8-.37,23.7-.19,7.83-.17,15.66-.36,23.5-.12,4.63-.13,9.26-.19,13.89,2.81.03,5.62.05,8.44.08.01-.35.04-.69.04-1.03.54-55.97,1.07-111.93,1.6-167.9,0-.21.02-.42,0-.62-.05-.42.1-.66.49-.88,1.02-.56,1.77-1.4,2.28-2.44.68-1.4.97-2.88.87-4.42-.12-2.08-1.26-3.32-3.31-3.77-.39-.08-.78-.1-1.32-.14.33-.14.5-.21.66-.28,1.54-.68,2.58-1.81,3.13-3.4.32-.92.44-1.88.43-2.85.13,0,.21.09.29.17,2.96,2.73,5.67,5.67,7.84,9.08,1.54,2.4,2.74,4.95,3.36,7.76.15.7.25,1.4.39,2.13.17-.04.32-.06.47-.12,2.74-.94,4.2-3.36,3.77-6.22-.03-.21-.13-.42-.04-.64.09.01.14,0,.18.03.26.15.52.3.77.47,3.48,2.28,6.72,4.86,9.67,7.79,3.25,3.22,6.09,6.72,7.69,11.09-.1-.43-.2-.85-.34-1.26-1.12-3.46-2.72-6.69-4.61-9.79-3.42-5.63-7.64-10.61-12.33-15.22-5.26-5.17-11.02-9.72-17.1-13.88-.21-.14-.45-.24-.59-.47.22-.19.51-.22.77-.29,3.17-.91,6.39-1.56,9.67-1.91,4.19-.45,8.37-.41,12.54.19,5.43.78,10.57,2.45,15.41,5.04.22.12.41.29.73.3.37-.9.54-1.83.44-2.82-.16-1.5-.82-2.76-1.84-3.86-1.12-1.2-2.48-2.05-3.93-2.77-.21-.11-.47-.17-.66-.39.2-.17.43-.21.64-.27,1.27-.4,2.56-.74,3.86-1.07,5.5-1.37,11.07-2.39,16.7-3.06,3.85-.46,7.7-.75,11.57-.8,3.55-.06,7.09.08,10.62.48,3.42.39,6.78,1.02,10.08,1.99,1.54.45,3.04,1.02,4.56,1.56-8.43-3.95-17.28-6.56-26.44-8.15h0Zm-88.78-14.24s0,0,.01-.02c0,.01,0,.02-.01.02Zm20.94,36.06c-.87-.76-1.78-1.46-2.72-2.13.94.66,1.85,1.37,2.72,2.13.3.08.52.27.67.53-.15-.27-.37-.45-.67-.53h0Zm11.99-45.9h0c0,.16-.06.29-.14.41.08-.12.15-.25.14-.41h0Z"/>
  <path class="cls-1" d="m530.29,271.82c-19.64-3.42-38.88-1.83-57.83,4.86,1.07-2.85,2.3-5.47,3.69-8.01,5.54-10.13,13.24-18.26,22.88-24.61-.09-.08-.12-.12-.15-.14-.1-.05-.21-.1-.31-.14-.88-.32-1.79-.39-2.72-.34-1.75.09-3.39.61-4.98,1.32-1.46.65-2.82,1.47-4.13,2.37-.13.09-.35.29-.4.21-.27-.42-.4,0-.51.08-1.2.97-2.45,1.88-3.75,2.7-.14.09-.28.21-.54.22.99-1.8,2.43-2.9,4.36-3.31.34-.07.51-.18.62-.51,1.73-5.18,4.1-10.06,6.93-14.71,2.65-4.35,5.71-8.37,9.42-11.88,1.72-1.62,3.57-3.07,5.52-4.41-.71.33-1.37.74-2.02,1.17-11.05,7.08-20.4,15.97-28.23,26.48-1.03,1.38-2.01,2.81-3.01,4.22-.04-.04-.09-.09-.14-.13.82-2.52,1.79-4.98,2.98-7.35.48-.95.99-1.87,1.74-2.65.14-.14.19-.29.18-.49-.1-1.34-.68-2.37-1.87-3.03-.51-.28-1.06-.43-1.63-.54-1.13-.22-2.25-.06-3.37-.02-.41.02-.57.16-.7.49-.58,1.47-1.4,2.8-2.44,3.99-.27.31-.54.63-.96.94.11-.33.18-.56.27-.78.7-1.75,1.71-3.31,3.03-4.66.2-.2.34-.39.28-.72-.62-3.38-1.46-6.7-2.68-9.91-.06-.16-.07-.37-.32-.46-.25.34-.52.68-.76,1.04-.65.95-1.28,1.91-1.95,2.85-.68.95-1.44,1.83-2.43,2.49-.08-.14,0-.23.06-.33.7-1.11,1.39-2.22,2.12-3.32.72-1.08,1.55-2.06,2.69-2.73.29-.17.3-.35.17-.62-.25-.52-.46-1.05-.72-1.57-.9-1.85-1.96-3.6-3.42-5.08-1.28-1.29-2.76-2.22-4.58-2.52-.09-.02-.18-.03-.23-.12h-1.38c-.03.22-.23.31-.37.46-4.42,4.66-8.14,9.82-10.9,15.64-2.35,4.95-3.81,10.12-3.71,15.65,0,.06-.01.09-.08.09-.02,0-.05,0-.06-.01-.06-.07-.11-.14-.16-.22-.78-1.28-1.9-2.11-3.31-2.57-1.27-.41-2.59-.44-3.9-.3-1.89.2-3.69.77-5.44,1.5-.15.06-.31.09-.42.27,3.53,4.82,7.06,9.65,10.6,14.48,0,0,0,.04-.02.06-.06.08-.06-.06-.03.13-6.2-6.22-13-11.55-20.44-16.05-7.45-4.51-15.3-8.14-23.71-10.7.11.27.3.27.44.32,3.19,1.19,6.17,2.79,8.97,4.71,7.35,5.04,13.36,11.41,18.39,18.73.22.32.47.62.59,1.01-.04.04-.08.09-.11.13-.33-.11-.66-.21-.98-.32-2.38-.78-4.79-1.33-7.31-1.23-1.4.06-2.74.33-3.97,1.04-.24.14-.51.27-.65.53.05.06.06.08.08.09.17.07.34.14.51.2,9.76,3.35,18.37,8.56,25.78,15.75,1.22,1.19,2.42,2.4,3.5,3.72-.04.03-.07.07-.1.1-.16-.04-.31-.06-.47-.12-10.03-3.4-20.33-5.35-30.91-5.84-6.15-.29-12.3-.07-18.42.64-4.67.54-9.29,1.36-13.86,2.47-5.47,1.33-10.82,3.01-16,5.21-.13.06-.25.11-.38.16-.12.06-.27.08-.31.23.03,0,.05,0,.07,0,5.13-1.93,10.47-2.87,15.91-3.23,5.07-.34,10.13-.19,15.18.29,3.44.33,6.86.81,10.26,1.42,4.83.86,9.61,1.96,14.3,3.37.58.18,1.17.33,1.73.6-.11.24-.32.24-.47.33-.55.29-1.12.54-1.66.85-1.21.69-2.31,1.53-3.15,2.65-1.17,1.56-1.62,3.29-1.15,5.21.21.83.21.82.97.44,6.17-3.15,12.72-4.8,19.63-5.08,4.75-.19,9.43.32,14.05,1.39.22.05.49.05.68.24-.07.06-.09.11-.13.12-.26.1-.52.19-.78.29-6.77,2.45-13.33,5.35-19.58,8.93-5.94,3.41-11.48,7.35-16.34,12.2-2.4,2.4-4.59,4.98-6.39,7.87-.08.14-.21.26-.22.54,1.3-1.83,2.76-3.35,4.42-4.69,5.25-4.2,11.24-6.99,17.57-9.1.15-.05.31-.12.49.03-.62,1.38-1,2.82-.55,4.34.45,1.53,1.43,2.61,2.82,3.42.09-.18.14-.28.18-.39.78-1.99,1.91-3.78,3.27-5.42,2.03-2.45,4.44-4.48,7.05-6.27,3.83-2.63,7.98-4.69,12.27-6.45,1.62-.66,3.26-1.27,4.91-1.84.21-.07.43-.23.65-.06.3.23.68.37.9.71-.59.08-1.19.13-1.77.26-2.28.54-4.15,1.65-5.19,3.85-.83,1.77-.98,3.63-.55,5.53.26,1.15.88,2.07,1.87,2.72.35.23.76.36,1.19.55-.62.41-1.19.8-1.66,1.32-1.28,1.41-1.78,3.09-1.75,4.95.03,2.02,1.04,3.38,2.89,4.13.32.13.65.23.98.33.63.19.64.18.63.82,0,.32,0,.64-.01.97-.09,4.21-.11,8.43-.21,12.64-.19,7.88-.18,15.76-.37,23.63-.18,7.88-.18,15.76-.37,23.63-.18,7.85-.18,15.71-.36,23.56-.18,7.85-.18,15.71-.36,23.56-.19,7.9-.18,15.8-.37,23.7-.19,7.83-.17,15.66-.36,23.5-.12,4.63-.13,9.26-.19,13.89,2.81.03,5.62.05,8.44.08.01-.35.04-.69.04-1.03.54-55.97,1.07-111.93,1.6-167.9,0-.21.02-.42,0-.62-.05-.42.1-.66.49-.88,1.02-.56,1.77-1.4,2.28-2.44.68-1.4.97-2.88.87-4.42-.12-2.08-1.26-3.32-3.31-3.77-.39-.08-.78-.1-1.32-.14.33-.14.5-.21.66-.28,1.54-.68,2.58-1.81,3.13-3.4.32-.92.44-1.88.43-2.85.13,0,.21.09.29.17,2.96,2.73,5.67,5.67,7.84,9.08,1.54,2.4,2.74,4.95,3.36,7.76.15.7.25,1.4.39,2.13.17-.04.32-.06.47-.12,2.74-.94,4.2-3.36,3.77-6.22-.03-.21-.13-.42-.04-.64.09.01.14,0,.18.03.26.15.52.3.77.47,3.48,2.28,6.72,4.86,9.67,7.79,3.25,3.22,6.09,6.72,7.69,11.09-.1-.43-.2-.85-.34-1.26-1.12-3.46-2.72-6.69-4.61-9.79-3.42-5.63-7.64-10.61-12.33-15.22-5.26-5.17-11.02-9.72-17.1-13.88-.21-.14-.45-.24-.59-.47.22-.19.51-.22.77-.29,3.17-.91,6.39-1.56,9.67-1.91,4.19-.45,8.37-.41,12.54.19,5.43.78,10.57,2.45,15.41,5.04.22.12.41.29.73.3.37-.9.54-1.83.44-2.82-.16-1.5-.82-2.76-1.84-3.86-1.12-1.2-2.48-2.05-3.93-2.77-.21-.11-.47-.17-.66-.39.2-.17.43-.21.64-.27,1.27-.4,2.56-.74,3.86-1.07,5.5-1.37,11.07-2.39,16.7-3.06,3.85-.46,7.7-.75,11.57-.8,3.55-.06,7.09.08,10.62.48,3.42.39,6.78,1.02,10.08,1.99,1.54.45,3.04,1.02,4.56,1.56-8.43-3.95-17.28-6.56-26.44-8.15h0Zm-88.78-14.24s0,0,.01-.02c0,.01,0,.02-.01.02Zm20.94,36.06c-.87-.76-1.78-1.46-2.72-2.13.94.66,1.85,1.37,2.72,2.13.3.08.52.27.67.53-.15-.27-.37-.45-.67-.53h0Zm11.99-45.9h0c0,.16-.06.29-.14.41.08-.12.15-.25.14-.41h0Z"/>
  <path class="cls-1" d="m130.68,320.61c-12.91-2.25-25.57-1.2-38.02,3.2.71-1.88,1.51-3.59,2.42-5.26,3.64-6.66,8.7-12.01,15.04-16.18-.06-.05-.08-.08-.1-.09-.07-.03-.14-.07-.21-.09-.58-.21-1.18-.26-1.79-.22-1.15.06-2.23.4-3.27.87-.96.43-1.85.97-2.72,1.56-.08.06-.23.19-.26.14-.18-.27-.26,0-.33.05-.79.64-1.61,1.24-2.47,1.78-.09.06-.18.14-.36.15.65-1.18,1.6-1.9,2.87-2.17.22-.05.33-.12.41-.33,1.14-3.41,2.7-6.61,4.56-9.67,1.74-2.86,3.76-5.51,6.19-7.81,1.13-1.07,2.35-2.02,3.63-2.9-.47.21-.9.49-1.33.77-7.26,4.66-13.41,10.5-18.56,17.41-.68.91-1.32,1.85-1.98,2.77-.03-.03-.06-.06-.09-.09.54-1.66,1.18-3.27,1.96-4.83.31-.62.65-1.23,1.15-1.74.09-.09.13-.19.12-.32-.07-.88-.45-1.56-1.23-1.99-.33-.19-.7-.29-1.07-.36-.74-.14-1.48-.04-2.22-.01-.27.01-.37.1-.46.32-.38.97-.92,1.84-1.6,2.62-.18.2-.35.41-.63.62.07-.21.12-.37.18-.52.46-1.15,1.12-2.18,2-3.06.13-.13.22-.25.18-.47-.41-2.22-.96-4.4-1.77-6.52-.04-.1-.05-.24-.21-.3-.16.22-.34.45-.5.69-.43.62-.84,1.26-1.28,1.87-.45.63-.95,1.2-1.6,1.64-.05-.09,0-.15.04-.22.46-.73.92-1.46,1.39-2.18.47-.71,1.02-1.36,1.77-1.8.19-.11.2-.23.11-.41-.16-.34-.3-.69-.47-1.03-.59-1.22-1.29-2.37-2.25-3.34-.84-.85-1.81-1.46-3.01-1.66-.06-.01-.12-.02-.15-.08h-.91c-.02.14-.15.21-.25.3-2.91,3.07-5.35,6.46-7.17,10.28-1.55,3.25-2.51,6.65-2.44,10.29,0,.04,0,.06-.05.06-.01,0-.03,0-.04,0-.04-.05-.07-.09-.1-.15-.51-.84-1.25-1.39-2.18-1.69-.84-.27-1.7-.29-2.56-.2-1.24.13-2.42.51-3.58.98-.1.04-.21.06-.28.18,2.32,3.17,4.64,6.34,6.97,9.52,0,0,0,.03-.01.04-.04.05-.04-.04-.02.08-4.07-4.09-8.55-7.59-13.44-10.56-4.9-2.97-10.06-5.35-15.59-7.04.07.18.2.18.29.21,2.09.78,4.05,1.84,5.9,3.1,4.83,3.32,8.78,7.5,12.09,12.32.14.21.31.41.39.66-.02.03-.05.06-.07.08-.21-.07-.43-.14-.65-.21-1.56-.51-3.15-.88-4.81-.81-.92.04-1.8.21-2.61.68-.16.09-.34.18-.43.35.03.04.04.05.05.06.11.04.22.09.34.13,6.42,2.2,12.08,5.63,16.95,10.36.8.78,1.59,1.58,2.3,2.45-.02.02-.04.04-.07.07-.1-.03-.21-.04-.31-.08-6.59-2.24-13.37-3.52-20.32-3.84-4.05-.19-8.09-.05-12.11.42-3.07.36-6.11.89-9.11,1.62-3.59.87-7.11,1.98-10.52,3.43-.08.04-.17.07-.25.11-.08.04-.18.05-.2.15.02,0,.03,0,.05,0,3.37-1.27,6.88-1.89,10.46-2.13,3.33-.22,6.66-.13,9.98.19,2.26.21,4.51.53,6.75.93,3.18.57,6.32,1.29,9.4,2.21.38.12.77.22,1.14.39-.07.16-.21.16-.31.21-.36.19-.73.36-1.09.56-.8.45-1.52,1-2.07,1.74-.77,1.02-1.07,2.16-.75,3.42.14.54.14.54.64.29,4.06-2.07,8.37-3.16,12.91-3.34,3.12-.12,6.2.21,9.24.91.15.03.32.03.45.16-.04.04-.06.07-.09.08-.17.07-.34.13-.51.19-4.45,1.61-8.77,3.52-12.87,5.87-3.9,2.24-7.55,4.83-10.75,8.02-1.58,1.58-3.02,3.27-4.2,5.18-.05.09-.14.17-.15.35.85-1.21,1.82-2.2,2.91-3.08,3.45-2.76,7.39-4.6,11.55-5.98.1-.03.2-.08.32.02-.41.91-.66,1.85-.36,2.86.29,1,.94,1.72,1.85,2.25.06-.12.09-.19.12-.25.52-1.31,1.26-2.48,2.15-3.56,1.33-1.61,2.92-2.94,4.64-4.12,2.52-1.73,5.24-3.08,8.07-4.24,1.06-.44,2.14-.84,3.23-1.21.14-.05.28-.15.43-.04.2.15.45.24.59.47-.39.05-.78.08-1.17.17-1.5.35-2.73,1.09-3.41,2.53-.54,1.16-.64,2.39-.36,3.64.17.75.58,1.36,1.23,1.79.23.15.5.24.78.36-.41.27-.78.53-1.09.87-.84.93-1.17,2.03-1.15,3.26.02,1.33.69,2.22,1.9,2.71.21.09.43.15.64.22.42.12.42.12.42.54,0,.21,0,.42,0,.64-.06,2.77-.07,5.54-.14,8.31-.13,5.18-.12,10.36-.24,15.54-.12,5.18-.12,10.36-.24,15.54-.12,5.16-.12,10.33-.24,15.49s-.12,10.33-.24,15.49c-.12,5.19-.12,10.39-.24,15.58-.12,5.15-.11,10.3-.24,15.45-.08,3.04-.08,6.09-.12,9.13,1.85.02,3.7.03,5.55.05,0-.23.02-.45.03-.68.35-36.8.7-73.6,1.05-110.4,0-.14.02-.27,0-.41-.03-.27.07-.44.32-.58.67-.37,1.16-.92,1.5-1.6.45-.92.64-1.9.57-2.91-.08-1.37-.83-2.18-2.18-2.48-.25-.05-.51-.06-.87-.09.22-.09.33-.14.44-.19,1.01-.44,1.7-1.19,2.06-2.23.21-.61.29-1.23.28-1.88.08,0,.14.06.19.11,1.94,1.8,3.73,3.73,5.16,5.97,1.01,1.58,1.8,3.26,2.21,5.1.1.46.17.92.25,1.4.11-.03.21-.04.31-.08,1.8-.62,2.76-2.21,2.48-4.09-.02-.14-.08-.28-.03-.42.06,0,.09,0,.12.02.17.1.34.2.5.31,2.29,1.5,4.42,3.2,6.36,5.12,2.13,2.12,4.01,4.42,5.06,7.29-.07-.28-.13-.56-.22-.83-.74-2.27-1.79-4.4-3.03-6.44-2.25-3.7-5.02-6.98-8.11-10.01-3.46-3.4-7.25-6.39-11.24-9.13-.14-.09-.29-.16-.39-.31.15-.13.33-.15.5-.19,2.08-.6,4.2-1.02,6.36-1.26,2.76-.3,5.51-.27,8.25.12,3.57.51,6.95,1.61,10.13,3.31.14.08.27.19.48.2.24-.59.36-1.21.29-1.85-.1-.99-.54-1.82-1.21-2.54-.73-.79-1.63-1.35-2.59-1.82-.14-.07-.31-.11-.44-.26.13-.11.28-.14.42-.18.84-.26,1.68-.49,2.54-.7,3.62-.9,7.28-1.57,10.98-2.01,2.53-.3,5.07-.49,7.61-.53,2.34-.04,4.66.05,6.99.32,2.25.26,4.46.67,6.63,1.31,1.01.3,2,.67,3,1.02-5.54-2.59-11.36-4.31-17.38-5.36h0Zm-58.37-9.36s0,0,0-.01c0,0,0,.01,0,.01Zm13.77,23.71c-.57-.5-1.17-.96-1.79-1.4.62.44,1.22.9,1.79,1.4.2.05.34.18.44.35-.1-.18-.25-.3-.44-.35h0Zm7.88-30.18h0c0,.1-.04.19-.09.27.05-.08.1-.16.09-.27h0Z"/>
  <path class="cls-1" d="m578.8,306.99c-12.91-2.25-25.57-1.2-38.02,3.2.71-1.88,1.51-3.59,2.42-5.26,3.64-6.66,8.7-12.01,15.04-16.18-.06-.05-.08-.08-.1-.09-.07-.03-.14-.07-.21-.09-.58-.21-1.18-.26-1.79-.22-1.15.06-2.23.4-3.27.87-.96.43-1.85.97-2.72,1.56-.08.06-.23.19-.26.14-.18-.27-.26,0-.33.05-.79.64-1.61,1.24-2.47,1.78-.09.06-.18.14-.36.15.65-1.18,1.6-1.9,2.87-2.17.22-.05.33-.12.41-.33,1.14-3.41,2.7-6.61,4.56-9.67,1.74-2.86,3.76-5.51,6.19-7.81,1.13-1.07,2.35-2.02,3.63-2.9-.47.21-.9.49-1.33.77-7.26,4.66-13.41,10.5-18.56,17.41-.68.91-1.32,1.85-1.98,2.77-.03-.03-.06-.06-.09-.09.54-1.66,1.18-3.27,1.96-4.83.31-.62.65-1.23,1.15-1.74.09-.09.13-.19.12-.32-.07-.88-.45-1.56-1.23-1.99-.33-.19-.7-.29-1.07-.36-.74-.14-1.48-.04-2.22-.01-.27.01-.37.1-.46.32-.38.97-.92,1.84-1.6,2.62-.18.2-.35.41-.63.62.07-.21.12-.37.18-.52.46-1.15,1.12-2.18,2-3.06.13-.13.22-.25.18-.47-.41-2.22-.96-4.4-1.77-6.52-.04-.1-.05-.24-.21-.3-.16.22-.34.45-.5.69-.43.62-.84,1.26-1.28,1.87-.45.63-.95,1.2-1.6,1.64-.05-.09,0-.15.04-.22.46-.73.92-1.46,1.39-2.18.47-.71,1.02-1.36,1.77-1.8.19-.11.2-.23.11-.41-.16-.34-.3-.69-.47-1.03-.59-1.22-1.29-2.37-2.25-3.34-.84-.85-1.81-1.46-3.01-1.66-.06-.01-.12-.02-.15-.08h-.91c-.02.14-.15.21-.25.3-2.91,3.07-5.35,6.46-7.17,10.28-1.55,3.25-2.51,6.65-2.44,10.29,0,.04,0,.06-.05.06-.01,0-.03,0-.04,0-.04-.05-.07-.09-.1-.15-.51-.84-1.25-1.39-2.18-1.69-.84-.27-1.7-.29-2.56-.2-1.24.13-2.42.51-3.58.98-.1.04-.21.06-.28.18,2.32,3.17,4.64,6.34,6.97,9.52,0,0,0,.03-.01.04-.04.05-.04-.04-.02.08-4.07-4.09-8.55-7.59-13.44-10.56-4.9-2.97-10.06-5.35-15.59-7.04.07.18.2.18.29.21,2.09.78,4.05,1.84,5.9,3.1,4.83,3.32,8.78,7.5,12.09,12.32.14.21.31.41.39.66-.02.03-.05.06-.07.08-.21-.07-.43-.14-.65-.21-1.56-.51-3.15-.88-4.81-.81-.92.04-1.8.21-2.61.68-.16.09-.34.18-.43.35.03.04.04.05.05.06.11.04.22.09.34.13,6.42,2.2,12.08,5.63,16.95,10.36.8.78,1.59,1.58,2.3,2.45-.02.02-.04.04-.07.07-.1-.03-.21-.04-.31-.08-6.59-2.24-13.37-3.52-20.32-3.84-4.05-.19-8.09-.05-12.11.42-3.07.36-6.11.89-9.11,1.62-3.59.87-7.11,1.98-10.52,3.43-.08.04-.17.07-.25.11-.08.04-.18.05-.2.15.02,0,.03,0,.05,0,3.37-1.27,6.88-1.89,10.46-2.13,3.33-.22,6.66-.13,9.98.19,2.26.21,4.51.53,6.75.93,3.18.57,6.32,1.29,9.4,2.21.38.12.77.22,1.14.39-.07.16-.21.16-.31.21-.36.19-.73.36-1.09.56-.8.45-1.52,1-2.07,1.74-.77,1.02-1.07,2.16-.75,3.42.14.54.14.54.64.29,4.06-2.07,8.37-3.16,12.91-3.34,3.12-.12,6.2.21,9.24.91.15.03.32.03.45.16-.04.04-.06.07-.09.08-.17.07-.34.13-.51.19-4.45,1.61-8.77,3.52-12.87,5.87-3.9,2.24-7.55,4.83-10.75,8.02-1.58,1.58-3.02,3.27-4.2,5.18-.05.09-.14.17-.15.35.85-1.21,1.82-2.2,2.91-3.08,3.45-2.76,7.39-4.6,11.55-5.98.1-.03.2-.08.32.02-.41.91-.66,1.85-.36,2.86.29,1,.94,1.72,1.85,2.25.06-.12.09-.19.12-.25.52-1.31,1.26-2.48,2.15-3.56,1.33-1.61,2.92-2.94,4.64-4.12,2.52-1.73,5.24-3.08,8.07-4.24,1.06-.44,2.14-.84,3.23-1.21.14-.05.28-.15.43-.04.2.15.45.24.59.47-.39.05-.78.08-1.17.17-1.5.35-2.73,1.09-3.41,2.53-.54,1.16-.64,2.39-.36,3.64.17.75.58,1.36,1.23,1.79.23.15.5.24.78.36-.41.27-.78.53-1.09.87-.84.93-1.17,2.03-1.15,3.26.02,1.33.69,2.22,1.9,2.71.21.09.43.15.64.22.42.12.42.12.42.54,0,.21,0,.42,0,.64-.06,2.77-.07,5.54-.14,8.31-.13,5.18-.12,10.36-.24,15.54-.12,5.18-.12,10.36-.24,15.54-.12,5.16-.12,10.33-.24,15.49s-.12,10.33-.24,15.49c-.12,5.19-.12,10.39-.24,15.58-.12,5.15-.11,10.3-.24,15.45-.08,3.04-.08,6.09-.12,9.13,1.85.02,3.7.03,5.55.05,0-.23.02-.45.03-.68.35-36.8.7-73.6,1.05-110.4,0-.14.02-.27,0-.41-.03-.27.07-.44.32-.58.67-.37,1.16-.92,1.5-1.6.45-.92.64-1.9.57-2.91-.08-1.37-.83-2.18-2.18-2.48-.25-.05-.51-.06-.87-.09.22-.09.33-.14.44-.19,1.01-.44,1.7-1.19,2.06-2.23.21-.61.29-1.23.28-1.88.08,0,.14.06.19.11,1.94,1.8,3.73,3.73,5.16,5.97,1.01,1.58,1.8,3.26,2.21,5.1.1.46.17.92.25,1.4.11-.03.21-.04.31-.08,1.8-.62,2.76-2.21,2.48-4.09-.02-.14-.08-.28-.03-.42.06,0,.09,0,.12.02.17.1.34.2.5.31,2.29,1.5,4.42,3.2,6.36,5.12,2.13,2.12,4.01,4.42,5.06,7.29-.07-.28-.13-.56-.22-.83-.74-2.27-1.79-4.4-3.03-6.44-2.25-3.7-5.02-6.98-8.11-10.01-3.46-3.4-7.25-6.39-11.24-9.13-.14-.09-.29-.16-.39-.31.15-.13.33-.15.5-.19,2.08-.6,4.2-1.02,6.36-1.26,2.76-.3,5.51-.27,8.25.12,3.57.51,6.95,1.61,10.13,3.31.14.08.27.19.48.2.24-.59.36-1.21.29-1.85-.1-.99-.54-1.82-1.21-2.54-.73-.79-1.63-1.35-2.59-1.82-.14-.07-.31-.11-.44-.26.13-.11.28-.14.42-.18.84-.26,1.68-.49,2.54-.7,3.62-.9,7.28-1.57,10.98-2.01,2.53-.3,5.07-.49,7.61-.53,2.34-.04,4.66.05,6.99.32,2.25.26,4.46.67,6.63,1.31,1.01.3,2,.67,3,1.02-5.54-2.59-11.36-4.31-17.38-5.36h0Zm-58.37-9.36s0,0,0-.01c0,0,0,.01,0,.01Zm13.77,23.71c-.57-.5-1.17-.96-1.79-1.4.62.44,1.22.9,1.79,1.4.2.05.34.18.44.35-.1-.18-.25-.3-.44-.35h0Zm7.88-30.18h0c0,.1-.04.19-.09.27.05-.08.1-.16.09-.27h0Z"/>
</svg>