<?xml version="1.0" encoding="UTF-8"?>
<svg id="Layer_3" data-name="Layer 3" xmlns="http://www.w3.org/2000/svg" viewBox="0 0 39.82 39.78">
  <defs>
    <style>
      .cls-1 {
        fill: #fff;
        stroke-width: 0px;
      }
    </style>
  </defs>
  <path class="cls-1" d="m19.8.18C8.87.18,0,9.04,0,19.98s8.87,19.8,19.8,19.8,19.8-8.87,19.8-19.8S30.74.18,19.8.18Zm-6.55,30.8h-4.46v-14.98h4.46v14.98Zm-2.26-17.18c-1.49,0-2.64-1.21-2.64-2.7s1.16-2.7,2.64-2.7,2.7,1.21,2.7,2.7-1.21,2.7-2.7,2.7Zm19.82,9.36v7.82h-4.4v-8.09c-.06-1.71-1.21-3.03-2.92-3.03s-3.14,1.32-3.19,3.03v8.09h-4.4v-14.98h4.4v2.09c.94-1.38,2.48-2.26,4.24-2.26h1.21c2.81,0,5.07,2.31,5.07,5.07v2.26Z"/>
</svg>