<?xml version="1.0" encoding="UTF-8"?>
<svg id="Layer_1" data-name="Layer 1" xmlns="http://www.w3.org/2000/svg" viewBox="0 0 489.86 684.64">
  <defs>
    <style>
      .cls-1 {
        fill: #fff;
        stroke-width: 0px;
      }
    </style>
  </defs>
  <path class="cls-1" d="m423.4,149.95c-49.38-8.6-97.76-4.6-145.39,12.22,2.7-7.17,5.78-13.74,9.27-20.13,13.93-25.46,33.28-45.91,57.51-61.87-.22-.2-.29-.3-.38-.34-.26-.13-.52-.25-.79-.35-2.22-.8-4.51-.98-6.84-.86-4.41.23-8.52,1.54-12.51,3.33-3.66,1.64-7.08,3.69-10.39,5.95-.32.22-.87.72-1,.52-.67-1.05-1-.01-1.28.21-3.02,2.44-6.15,4.73-9.44,6.8-.36.23-.7.53-1.37.56,2.5-4.52,6.1-7.28,10.96-8.31.86-.18,1.27-.45,1.55-1.27,4.34-13.02,10.32-25.28,17.43-36.99,6.65-10.94,14.36-21.05,23.68-29.87,4.32-4.08,8.98-7.73,13.89-11.09-1.79.82-3.44,1.87-5.08,2.93-27.77,17.8-51.29,40.15-70.97,66.58-2.59,3.48-5.05,7.07-7.57,10.6-.11-.11-.23-.22-.34-.33,2.05-6.34,4.51-12.51,7.5-18.47,1.2-2.38,2.49-4.71,4.38-6.65.35-.36.48-.72.44-1.24-.26-3.36-1.71-5.96-4.71-7.62-1.28-.71-2.66-1.09-4.09-1.37-2.83-.55-5.65-.15-8.48-.04-1.02.04-1.43.4-1.76,1.24-1.46,3.7-3.53,7.03-6.13,10.03-.68.78-1.35,1.58-2.42,2.37.28-.82.46-1.41.69-1.97,1.77-4.41,4.29-8.33,7.63-11.71.51-.51.85-.97.7-1.8-1.55-8.5-3.66-16.84-6.75-24.92-.15-.4-.18-.92-.8-1.16-.63.86-1.3,1.72-1.92,2.62-1.64,2.38-3.23,4.81-4.91,7.16-1.71,2.39-3.63,4.59-6.1,6.27-.19-.35,0-.59.15-.83,1.77-2.78,3.5-5.59,5.32-8.34,1.8-2.72,3.9-5.19,6.77-6.87.74-.43.75-.87.42-1.55-.63-1.3-1.16-2.65-1.8-3.95-2.27-4.66-4.93-9.06-8.6-12.77-3.21-3.24-6.93-5.59-11.52-6.33-.23-.04-.45-.08-.57-.31l-3.48-.03c-.08.58-.59.82-.94,1.18-11.12,11.72-20.46,24.69-27.4,39.31-5.91,12.44-9.58,25.43-9.32,39.34,0,.15-.03.23-.19.23-.05-.01-.12,0-.14-.03-.14-.18-.28-.36-.4-.56-1.95-3.22-4.78-5.3-8.33-6.45-3.2-1.04-6.5-1.11-9.8-.75-4.75.51-9.27,1.94-13.68,3.76-.37.15-.79.22-1.06.67,8.87,12.12,17.76,24.26,26.64,36.4.02.02-.02.1-.05.14-.14.19-.16-.14-.07.32-15.58-15.63-32.68-29.03-51.38-40.36-18.72-11.35-38.46-20.47-59.6-26.9.28.68.75.68,1.1.81,8.01,3,15.5,7.02,22.54,11.85,18.47,12.68,33.58,28.68,46.23,47.09.55.8,1.19,1.57,1.48,2.53-.09.11-.19.22-.28.32-.82-.27-1.65-.53-2.47-.8-5.98-1.95-12.05-3.35-18.39-3.08-3.51.15-6.9.82-9.98,2.61-.61.36-1.29.67-1.64,1.32.13.15.16.21.21.23.43.17.85.35,1.29.5,24.53,8.41,46.19,21.52,64.82,39.6,3.07,2.98,6.08,6.03,8.79,9.36-.09.08-.17.17-.26.25-.39-.1-.79-.16-1.17-.29-25.21-8.56-51.12-13.45-77.7-14.69-15.47-.72-30.92-.18-46.31,1.62-11.74,1.37-23.35,3.42-34.84,6.21-13.74,3.34-27.2,7.57-40.22,13.1-.32.14-.64.27-.95.41-.3.14-.67.19-.78.59.07,0,.13.02.18,0,12.9-4.84,26.31-7.21,40-8.13,12.74-.85,25.47-.48,38.17.73,8.64.82,17.24,2.03,25.79,3.56,12.14,2.17,24.15,4.92,35.96,8.46,1.46.44,2.94.84,4.34,1.5-.27.6-.8.61-1.19.82-1.38.73-2.81,1.37-4.17,2.14-3.05,1.73-5.8,3.84-7.93,6.66-2.95,3.91-4.08,8.26-2.88,13.09.52,2.08.53,2.07,2.43,1.11,15.51-7.91,31.99-12.08,49.36-12.76,11.93-.47,23.71.8,35.33,3.49.56.13,1.22.13,1.72.6-.17.16-.23.27-.33.3-.65.25-1.3.49-1.95.72-17.01,6.16-33.52,13.44-49.22,22.46-14.93,8.57-28.87,18.48-41.09,30.68-6.04,6.04-11.54,12.51-16.06,19.79-.21.34-.52.65-.56,1.35,3.26-4.61,6.95-8.43,11.12-11.78,13.19-10.57,28.25-17.57,44.17-22.87.37-.12.77-.3,1.22.07-1.56,3.48-2.51,7.09-1.39,10.92,1.12,3.84,3.59,6.57,7.08,8.61.22-.46.35-.71.46-.97,1.97-5.01,4.8-9.5,8.22-13.63,5.1-6.17,11.16-11.26,17.73-15.77,9.64-6.61,20.05-11.78,30.84-16.21,4.07-1.67,8.19-3.2,12.35-4.63.52-.18,1.07-.58,1.64-.15.76.59,1.72.93,2.27,1.79-1.49.21-3,.32-4.46.66-5.73,1.35-10.44,4.15-13.04,9.68-2.08,4.44-2.46,9.13-1.39,13.9.65,2.88,2.21,5.2,4.7,6.85.89.59,1.91.9,2.99,1.38-1.56,1.04-2.99,2.01-4.17,3.31-3.21,3.54-4.47,7.77-4.4,12.45.08,5.09,2.62,8.49,7.27,10.38.8.33,1.63.59,2.46.83,1.59.47,1.6.45,1.59,2.06,0,.81,0,1.62-.03,2.43-.23,10.59-.27,21.19-.52,31.79-.48,19.8-.46,39.61-.93,59.42-.46,19.8-.45,39.61-.92,59.42-.46,19.74-.45,39.5-.91,59.24-.46,19.74-.45,39.5-.91,59.24-.47,19.86-.45,39.73-.92,59.59-.47,19.69-.42,39.38-.91,59.07-.29,11.64-.32,23.28-.47,34.92,7.07.07,14.14.13,21.21.2.03-.87.09-1.73.1-2.6,1.35-140.71,2.69-281.41,4.03-422.12,0-.52.06-1.05,0-1.56-.12-1.05.26-1.67,1.22-2.2,2.56-1.4,4.44-3.51,5.72-6.13,1.71-3.51,2.43-7.25,2.19-11.12-.31-5.22-3.16-8.34-8.33-9.47-.97-.21-1.96-.24-3.33-.36.83-.35,1.25-.53,1.67-.71,3.87-1.7,6.49-4.55,7.88-8.54.81-2.32,1.1-4.72,1.07-7.17.32,0,.52.23.73.42,7.43,6.87,14.25,14.26,19.72,22.82,3.86,6.04,6.9,12.45,8.44,19.5.38,1.75.64,3.52.97,5.36.42-.1.81-.16,1.18-.29,6.88-2.37,10.56-8.45,9.48-15.65-.08-.53-.32-1.06-.1-1.61.23.03.36.02.45.07.65.38,1.3.75,1.93,1.17,8.74,5.74,16.89,12.23,24.32,19.59,8.16,8.09,15.32,16.89,19.33,27.88-.25-1.08-.51-2.14-.85-3.18-2.82-8.69-6.85-16.82-11.59-24.61-8.6-14.15-19.2-26.68-30.99-38.26-13.23-12.99-27.71-24.43-42.98-34.9-.52-.35-1.12-.61-1.49-1.17.56-.49,1.28-.56,1.93-.74,7.97-2.3,16.07-3.91,24.32-4.8,10.54-1.14,21.05-1.03,31.53.47,13.65,1.95,26.58,6.16,38.75,12.66.55.29,1.04.74,1.83.76.93-2.27,1.36-4.61,1.1-7.09-.4-3.78-2.06-6.95-4.62-9.7-2.81-3.01-6.23-5.15-9.89-6.96-.54-.27-1.17-.42-1.67-.99.51-.43,1.08-.52,1.62-.69,3.2-1.01,6.44-1.87,9.7-2.68,13.83-3.45,27.82-6,41.98-7.69,9.67-1.15,19.37-1.88,29.1-2.02,8.93-.14,17.83.2,26.71,1.21,8.59.98,17.05,2.56,25.34,5,3.88,1.14,7.65,2.57,11.46,3.91-21.2-9.92-43.45-16.48-66.46-20.48Zm-223.19-35.79s.02-.02.03-.05c-.01.03-.02.04-.03.05Zm52.65,90.65c-2.19-1.91-4.47-3.68-6.83-5.35,2.36,1.67,4.65,3.44,6.84,5.35.75.21,1.3.67,1.69,1.34-.38-.67-.94-1.13-1.69-1.34Zm30.14-115.39s0,0,0,0c.02.4-.16.72-.36,1.03.2-.31.38-.63.35-1.03Z"/>
  <polygon class="cls-1" points="369.39 7.73 369.27 7.81 369.37 7.84 369.39 7.73"/>
  <path class="cls-1" d="m370.38,7.11c.25-.07.52-.1.77-.19.13-.04.24-.1.35-.18.11-.08.2-.18.28-.31,0,0,0,0,.01,0h0s.04-.05.04-.05l-.05.04s0,0,0,0c-.39.07-.78.15-1.1.38-.11.08-.21.17-.3.28h-.02s0,.01,0,.01c0,0-.02.04-.02.04l.04-.05Z"/>
</svg>