<?xml version="1.0" encoding="utf-8"?>
<!-- Generator: Adobe Illustrator 28.0.0, SVG Export Plug-In . SVG Version: 6.00 Build 0)  -->
<svg version="1.1" id="Layer_1" xmlns="http://www.w3.org/2000/svg" xmlns:xlink="http://www.w3.org/1999/xlink" x="0px" y="0px"
	 viewBox="0 0 612 612" style="enable-background:new 0 0 612 612;" xml:space="preserve">
<style type="text/css">
	.st0{fill:#00677B;}
	.st1{fill:#00A99D;}
</style>
<g>
	<path class="st0" d="M49.58,435.61c12.59,2.06,25.18,4.12,37.77,6.18c6.41-13.74,12.82-27.47,19.23-41.21
		c2.07-20.63,12.28-33.52,19.23-32.97c6.57,0.53,13.71,13.34,14.42,30.91c0.92,15.11,1.83,30.22,2.75,45.33
		c3.66,4.81,7.33,9.62,10.99,14.42c6.87-4.35,13.74-8.7,20.6-13.05c2.37-9.6,4.28-20.91,4.81-33.65
		c1.36-33.08-7.33-59.77-14.42-76.23c-0.03-1.1-0.07-5.97,2.75-7.55c3.31-1.87,8.44,2.02,10.3,3.43
		c11.94,9.06,11.18,31.04,13.74,50.82c1.58,12.25,5.21,29.58,14.42,50.14c10.53-10.53,21.06-21.06,31.59-31.59
		c0.76-12.24-0.66-21.79-2.06-28.16c-3.37-15.33-10.79-31.21-21.98-54.94c-3.7-7.84-7.06-14.65-5.49-15.8
		c1.87-1.37,9.6,6.21,12.36,8.93c9.37,9.2,24.38,27.64,43.27,67.31c5.01-9.08,10.48-21.06,14.42-35.71
		c2.66-9.9,4.08-18.97,4.81-26.79c-1.33-1.52-3.66-4.06-6.87-6.87c-12.69-11.11-24.89-13.96-40.52-26.79
		c-3.11-2.55-6.16-5.33-5.49-7.55c0.91-3.05,8.3-3.33,10.99-3.43c16.94-0.64,39.45,16.12,52.2,26.79c0.52-2.59,1.09-6.11,1.37-10.3
		c0.37-5.6,2.68-49.4-26.79-65.93c-11.08-6.21-28.45-9.59-44.64-1.37c-21.49,10.9-25.11,34.22-25.41,36.4
		c-1.16,2.97-4.61,4.05-6.87,2.75c-2.1-1.22-2.95-4.38-1.37-6.87c2.55-3.26,9.43-12.92,9.62-26.79c0.01-0.91,0.01-17.94-10.99-29.53
		c-18.61-19.61-59.44-13.93-84.48,4.12C86.76,212.35,79,228.98,75.67,237.81c3.83-2.75,15.83-10.64,32.97-10.3
		c18.57,0.36,30.91,10.13,34.34,13.05c-8.2-2.15-20.24-4.8-35.03-6.18c-23-2.14-35.39-3.11-46.02,4.81
		c-0.96,0.72-15.85,12.17-13.74,28.16c0.97,7.38,5.15,12.57,7.55,15.11c7.71-5.3,20.12-12.2,36.4-14.42
		c20.65-2.82,39.3,3,39.15,4.81c-0.15,1.76-18.08-1.49-40.52,3.43c-21.29,4.67-37.6,14.73-48.76,23.35c-1.06,4.74-2.3,13.23,0,23.35
		c1.66,7.3,4.58,12.87,6.87,16.48c2.49-1.94,7.1-5.47,13.05-9.62c16.68-11.62,42.4-29.54,52.88-22.66c0.2,0.13,3.9,2.61,3.43,4.81
		c-0.52,2.44-5.92,3.19-7.55,3.43c-15.76,2.37-42.57,12.7-54.26,18.54c-10.33,5.16-25.58,12.78-28.16,26.79
		c-0.48,2.58-1.87,12.68,4.81,20.6c3.54,4.2,7.89,6.06,10.3,6.87c0.83-4.36,3.84-16.93,15.11-25.41c8.77-6.6,21.41-9.89,23.35-6.87
		c2.67,4.15-14.95,20.15-24.04,27.47c-9.88,7.96-19.03,13.22-25.41,16.48C38.13,411.8,43.85,423.71,49.58,435.61z"/>
	<path class="st0" d="M557.4,110.64c2.75,12.46,5.51,24.92,8.26,37.37c-13.36,7.16-26.72,14.32-40.08,21.48
		c-20.48,3.2-32.8,14.11-31.85,21.02c0.89,6.53,14.08,12.95,31.66,12.69c15.14,0.08,30.27,0.16,45.41,0.24
		c5,3.39,10.01,6.78,15.01,10.18c-3.96,7.1-7.93,14.2-11.89,21.29c-9.45,2.89-20.65,5.43-33.34,6.66
		c-32.95,3.18-60.08-4.02-76.92-10.19c-1.1,0.03-5.96,0.26-7.39,3.16c-1.68,3.41,2.48,8.31,4,10.1c9.71,11.42,31.61,9.44,51.5,10.91
		c12.32,0.91,29.83,3.57,50.86,11.63c-9.93,11.1-19.87,22.19-29.8,33.29c-12.18,1.44-21.79,0.55-28.23-0.5
		c-15.49-2.52-31.76-9.04-56.07-18.91c-8.03-3.26-15.02-6.24-16.08-4.61c-1.27,1.94,6.74,9.24,9.6,11.85
		c9.7,8.85,28.94,22.82,69.59,39.48c-8.79,5.5-20.45,11.63-34.86,16.37c-9.73,3.21-18.72,5.12-26.48,6.28
		c-1.59-1.24-4.26-3.43-7.24-6.48c-11.8-12.06-15.32-24.08-28.98-38.98c-2.72-2.96-5.66-5.85-7.85-5.07
		c-3,1.08-2.87,8.47-2.82,11.16c0.3,16.95,18.28,38.5,29.63,50.64c-2.56,0.66-6.04,1.43-10.21,1.94
		c-5.57,0.68-49.18,5.41-67.31-23.1c-6.81-10.71-11.14-27.88-3.84-44.5c9.7-22.06,32.78-26.96,34.94-27.38
		c2.9-1.33,3.79-4.83,2.36-7.01c-1.33-2.03-4.53-2.71-6.93-0.99c-3.11,2.73-12.38,10.13-26.21,11.08c-0.91,0.06-17.91,1-30.09-9.34
		c-20.61-17.5-17.19-58.58-0.55-84.57c11.34-17.73,27.52-26.39,36.16-30.2c-2.54,3.97-9.75,16.39-8.46,33.49
		c1.39,18.52,11.83,30.3,14.93,33.57c-2.6-8.07-5.91-19.94-8.11-34.63c-3.41-22.85-5.06-35.16,2.26-46.21
		c0.66-1,11.28-16.49,27.36-15.27c7.42,0.56,12.84,4.45,15.5,6.71c-4.86,7.99-11.07,20.76-12.39,37.14
		c-1.68,20.78,5.17,39.08,6.96,38.82c1.75-0.25-2.49-17.97,1.19-40.65c3.49-21.52,12.63-38.36,20.62-49.98
		c4.67-1.33,13.08-3.03,23.32-1.29c7.38,1.26,13.1,3.86,16.84,5.95c-1.8,2.6-5.07,7.39-8.88,13.56
		c-10.68,17.3-27.15,43.97-19.71,54.05c0.14,0.19,2.82,3.75,4.99,3.16c2.41-0.65,2.86-6.08,3.01-7.73
		c1.5-15.86,10.33-43.21,15.52-55.2c4.58-10.6,11.35-26.24,25.19-29.6c2.55-0.62,12.56-2.57,20.84,3.66
		c4.39,3.3,6.48,7.55,7.43,9.91c-4.3,1.07-16.69,4.77-24.54,16.49c-6.11,9.12-8.69,21.92-5.57,23.69
		c4.29,2.43,19.29-16.04,26.1-25.52c7.41-10.3,12.15-19.73,15.05-26.28C533,100.52,545.2,105.58,557.4,110.64z"/>
	<path class="st1" d="M512.85,574.14c-20.62,3.37-41.25,6.75-61.87,10.12c-10.5-22.5-21-45-31.5-67.5
		c-3.38-33.79-20.11-54.91-31.5-54c-10.76,0.86-22.46,21.85-23.62,50.62c-1.5,24.75-3,49.5-4.5,74.25c-6,7.87-12,15.75-18,23.62
		c-11.25-7.12-22.5-14.25-33.75-21.37c-3.88-15.72-7.02-34.26-7.87-55.12c-2.22-54.18,12.01-97.9,23.62-124.87
		c0.05-1.8,0.11-9.77-4.5-12.37c-5.43-3.06-13.82,3.3-16.87,5.62C282.93,418,284.18,454,279.99,486.4
		c-2.6,20.07-8.53,48.46-23.62,82.12c-17.25-17.25-34.5-34.5-51.75-51.75c-1.25-20.05,1.08-35.69,3.37-46.12
		c5.52-25.11,17.67-51.13,36-89.99c6.05-12.83,11.56-23.99,9-25.87c-3.06-2.25-15.72,10.18-20.25,14.62
		c-15.35,15.06-39.93,45.27-70.87,110.24c-8.2-14.87-17.16-34.5-23.62-58.5c-4.36-16.21-6.69-31.07-7.87-43.87
		c2.17-2.49,6-6.65,11.25-11.25c20.79-18.2,40.76-22.87,66.37-43.87c5.09-4.18,10.08-8.73,9-12.37c-1.49-5-13.6-5.46-18-5.62
		c-27.74-1.05-64.62,26.41-85.5,43.87c-0.85-4.24-1.79-10.01-2.25-16.87c-0.61-9.17-4.39-80.92,43.87-107.99
		c18.14-10.18,46.6-15.7,73.12-2.25c35.21,17.86,41.13,56.05,41.62,59.62c1.9,4.87,7.56,6.64,11.25,4.5
		c3.43-1.99,4.83-7.17,2.25-11.25c-4.18-5.34-15.45-21.16-15.75-43.87c-0.02-1.5-0.02-29.38,18-48.37
		c30.48-32.12,97.36-22.81,138.37,6.75c27.97,20.16,40.67,47.4,46.12,61.87c-6.27-4.51-25.93-17.42-54-16.87
		c-30.41,0.59-50.63,16.6-56.25,21.37c13.43-3.53,33.15-7.87,57.37-10.12c37.67-3.51,57.96-5.1,75.37,7.87
		c1.58,1.18,25.96,19.94,22.5,46.12c-1.59,12.08-8.43,20.59-12.37,24.75c-12.62-8.68-32.95-19.98-59.62-23.62
		c-33.83-4.62-64.38,4.91-64.12,7.87c0.25,2.89,29.62-2.44,66.37,5.62c34.88,7.65,61.59,24.12,79.87,38.25
		c1.74,7.76,3.77,21.67,0,38.25c-2.72,11.96-7.5,21.08-11.25,27c-4.08-3.18-11.62-8.96-21.37-15.75
		c-27.32-19.03-69.45-48.38-86.62-37.12c-0.33,0.22-6.39,4.28-5.62,7.87c0.85,4,9.69,5.22,12.37,5.62
		c25.81,3.88,69.73,20.81,88.87,30.37c16.92,8.45,41.89,20.93,46.12,43.87c0.78,4.23,3.06,20.77-7.87,33.75
		c-5.8,6.88-12.93,9.92-16.87,11.25c-1.36-7.14-6.28-27.72-24.75-41.62c-14.36-10.81-35.07-16.19-38.25-11.25
		c-4.37,6.8,24.49,33,39.37,45c16.18,13.04,31.17,21.65,41.62,27C531.6,535.15,522.22,554.65,512.85,574.14z"/>
	<path class="st1" d="M310.92,291.22c-1.44-35.13-8.55-69.71-22.57-101.86c-17.81-41.4-46.72-77.12-82.05-105.13
		c34.89,20.77,63.49,52.27,81.73,88.61C306.25,209.14,314.78,250.8,310.92,291.22L310.92,291.22z"/>
	<path class="st1" d="M346.14,238.46c-1.44-35.13-8.55-69.71-22.57-101.86c-17.81-41.4-46.72-77.12-82.05-105.13
		c34.89,20.77,63.49,52.27,81.73,88.61C341.47,156.37,350,198.03,346.14,238.46L346.14,238.46z"/>
	<path class="st1" d="M289.9,341.95c-1.44-35.13-8.55-69.71-22.57-101.86c-17.81-41.4-46.72-77.12-82.05-105.13
		c34.89,20.77,63.49,52.27,81.73,88.61C285.23,259.86,293.75,301.53,289.9,341.95L289.9,341.95z"/>
	<ellipse class="st0" cx="168.9" cy="120.51" rx="7.59" ry="14.91"/>
	<ellipse class="st0" cx="192.69" cy="69.27" rx="7.59" ry="14.91"/>
	<ellipse class="st0" cx="229.82" cy="16.4" rx="7.59" ry="14.91"/>
	<g>
		<path class="st1" d="M279.99,289.54c25.9,17.15,41.88,35.05,51.75,48.37c15.91,21.49,17.87,33.73,36,57.37
			c16.95,22.11,32.45,33.84,42.75,42.75c22.92,19.82,52.23,53.42,78.75,113.62"/>
		<path class="st0" d="M279.99,289.54c31.63,15.95,58.61,43.14,75.49,74.87c3.54,6.03,7.09,11.8,11.03,17.35
			c7.88,11.1,16.76,21.6,26.53,31.1c9.94,9.93,21.24,18.33,31.3,28.45c25.49,25.59,44.41,56.93,57.71,90.26
			c2.62,6.62,5.03,13.31,7.18,20.08c-21.18-36.64-43.73-71.64-74.52-100.36c-10.24-9.54-21.8-17.96-31.89-27.98
			c-10.42-10.25-19.75-21.53-27.76-33.78c-7.94-11.89-13.62-25.19-20.54-37.38C320.8,328.07,301.33,307.22,279.99,289.54
			L279.99,289.54z"/>
	</g>
</g>
</svg>
