<?xml version="1.0" encoding="UTF-8"?>
<svg id="Layer_2" data-name="Layer 2" xmlns="http://www.w3.org/2000/svg" viewBox="0 0 39.82 39.78">
  <defs>
    <style>
      .cls-1 {
        fill: #fff;
        fill-rule: evenodd;
        stroke-width: 0px;
      }
    </style>
  </defs>
  <path class="cls-1" d="m19.8.18C8.87.18,0,9.04,0,19.98s8.87,19.8,19.8,19.8,19.8-8.87,19.8-19.8S30.74.18,19.8.18Zm11.71,18.06c-2.21.17-4.37-.55-6.03-2.05v9.07c0,4.43-3.65,8.02-8.13,8.02-2.32,0-4.43-1-5.92-2.55-1.33-1.44-2.16-3.37-2.16-5.48,0-4.37,3.49-7.97,7.91-8.08h.17c.39,0,.77.06,1.11.11v4.43c-.33-.11-.72-.17-1.11-.17-2.05,0-3.71,1.66-3.71,3.71,0,.77.22,1.55.66,2.16.72.94,1.83,1.55,3.04,1.55,2.1,0,3.76-1.66,3.76-3.71V7.84h4.37c-.06,1.49.55,3.04,1.6,4.2.89,1,1.94,1.66,3.15,1.83.39.11.83.11,1.27,0v4.37Z"/>
</svg>